<?xml version="1.0" encoding="utf-8"?>
<svg viewBox="19.34587860107422 32.05772399902344 133.08953857421875 64.45257568359375" width="133.08953857421875" height="64.45257568359375" xmlns="http://www.w3.org/2000/svg"><g transform="matrix(0.1983155310153961, 0, 0, 0.1983155310153961, -5.879918575286979, -50.42169952392578)"><path class="st1" d="M173.7,430.9l23.8,27.1h105.6c0,0,25.1,0.3,41.8,28.8c16.7,28.5-8.5-34.8-21.2-43.6c-12.7-8.8-9.8-13.1-43-13.5&#10;&#9;C247.6,429.4,173.7,430.9,173.7,430.9z" style="fill: rgb(155, 103, 35);" transform="matrix(0.9999999999999999, 0, 0, 1, 0, 0)"/><path d="M539.8,535.5l-139.1,46.4l9.9,18.1h-18.8L359,548.5h-1.5v-3.7h23.2l-7.6-13.1H329v-21h-20.1L290.5,537l-23.6,11.6&#10;&#9;&#9;&#9;l-59.2,1.8l-27.5,44.4l-18.4,0.9l11,7.6l-11,55.8l-7.5,3v15.5h13.7l6.5-3.1h27.6l146.9,7.2H370l6,6c0,0,90-0.9,100.4,0&#10;&#9;&#9;&#9;c10.4,0.9,24.7-6.8,24.7-6.8h26.8l55.7-94.6l7.8-28l6.3-10.4L539.8,535.5z M356.2,606.7l-14-11.4c0,0,14.2-12.7,15.9-14.2&#10;&#9;&#9;&#9;s0.6-10.9,0.6-10.9l31.9,36.4L356.2,606.7z" transform="matrix(0.9999999999999999, 0, 0, 1, 0, 0)"/><g transform="matrix(0.9999999999999999, 0, 0, 1, 0, 0)">
			<path class="st44" d="M488.3,682.5c-0.1,1.1-1,1.9-2.1,1.8l-9.3-0.7c-1.1-0.1-1.9-1-1.8-2.1l8.7-115c0.1-1.1,1-1.9,2.1-1.8&#10;&#9;&#9;&#9;&#9;l9.3,0.7c1.1,0.1,1.9,1,1.8,2.1L488.3,682.5z" style="fill: rgb(131, 88, 30);"/>
			<path class="st21" d="M495.2,565.4l-4.2-0.3l-9,119l4.2,0.3c1.1,0.1,2.1-0.7,2.1-1.8l8.7-115&#10;&#9;&#9;&#9;&#9;C497.1,566.4,496.3,565.4,495.2,565.4z" style="fill: rgb(251, 171, 46);"/>
		</g><g transform="matrix(0.9999999999999999, 0, 0, 1, 0, 0)">
			<path class="st16" d="M161.3,661.2c0,0-4.5-3-7.4-4.6c-3.3-1.8-2.8-11.9-2.5-14.9c0.5-2.9,11.2-68.4,12.8-75.1&#10;&#9;&#9;&#9;&#9;c0.7-3,1.9-5,3.5-5.9c1.5-0.8,2.8-0.4,2.9-0.4l-0.6,1.9c0,0-0.6-0.2-1.4,0.2c-0.8,0.4-1.8,1.6-2.5,4.5&#10;&#9;&#9;&#9;&#9;c-1.6,6.6-12.7,74.2-12.8,74.9c-0.4,5.5,0,12.1,1.5,12.9c3,1.6,7.4,4.6,7.6,4.7L161.3,661.2z" style="fill: rgb(255, 202, 45);"/>
		</g><g transform="matrix(0.9999999999999999, 0, 0, 1, 0, 0)">
			<path class="st16" d="M162,657.9c-0.7,0-1.6-0.3-2.9-1.1c-3.3-1.8-2.8-11.9-2.5-14.9c0.5-2.9,11.2-68.4,12.8-75.1&#10;&#9;&#9;&#9;&#9;c0.7-3,1.9-5,3.5-5.9c1.5-0.8,2.8-0.4,2.9-0.4l-0.6,1.9c0,0-0.6-0.2-1.4,0.2c-0.8,0.4-1.8,1.6-2.5,4.5&#10;&#9;&#9;&#9;&#9;c-1.6,6.6-12.7,74.2-12.8,74.9c-0.4,5.5,0,12.1,1.5,12.9c1.5,0.8,1.9,0.8,2,0.8c0,0-0.3,0-0.4,0.3c-0.1,0.1-0.2,0.3-0.2,0.7&#10;&#9;&#9;&#9;&#9;l2-0.4c0.1,0.5-0.1,0.9-0.5,1.2C162.6,657.8,162.3,657.9,162,657.9z" style="fill: rgb(255, 202, 45);"/>
		</g><path d="M 412.79998779296875 579.2000122070312 L 427 587.2000122070312 L 657.2999877929688 539.0999755859375 L 656.4000244140625 524.4000244140625 L 535.7999877929688 542.9000244140625 Z" class="st45" style="fill: rgb(119, 74, 25);" transform="matrix(0.9999999999999999, 0, 0, 1, 0, 0)"/><path d="M 768.7999877929688 497.8999938964844 L 658.7999877929688 523.2999877929688 L 656.5 538.4000244140625 L 742.2999877929688 524.4000244140625 Z" class="st46" style="fill: rgb(182, 116, 40);" transform="matrix(0.9999999999999999, 0, 0, 1, 0, 0)"/><path class="st18" d="M747.9,537.3l-0.6,3.4c0,0-0.9,2.8-7,4.2c-6.1,1.4-107.5,12.5-107.5,12.5v6.7h-1.3l-3.9-12.6l3.2-7.5&#10;&#9;&#9;&#9;l104.3-4.8l0.4-1.8H747.9z" style="fill: rgb(204, 137, 41);" transform="matrix(0.9999999999999999, 0, 0, 1, 0, 0)"/><path class="st16" d="M173.7,430.9v-15h167l44.3,52h408l5.3,24.7l-397.7,89.3l-79-134.7c0,0-3.7-13.3-32.3-13&#10;&#9;&#9;&#9;C260.7,434.5,173.7,430.9,173.7,430.9z" style="fill: rgb(255, 202, 45);" transform="matrix(0.9999999999999999, 0, 0, 1, 0, 0)"/><path d="M 341 424.29998779296875 L 341 421.8999938964844 L 237 420.70001220703125 L 237 423.3999938964844 Z" class="st19" style="fill: rgb(248, 228, 49);" transform="matrix(0.9999999999999999, 0, 0, 1, 0, 0)"/><path d="M 343 430.3999938964844 L 341 424.29998779296875 L 237 423.3999938964844 L 207 428.8999938964844 Z" class="st21" style="fill: rgb(251, 171, 46);" transform="matrix(0.9999999999999999, 0, 0, 1, 0, 0)"/><path d="M 385 467.8999938964844 L 383.1000061035156 465.70001220703125 L 332.5 465.70001220703125 L 332.5 465.70001220703125 L 334.20001220703125 468.5 L 334.20001220703125 468.5 L 385 468.5 L 385.8999938964844 467.8999938964844 Z" class="st19" style="fill: rgb(248, 228, 49);" transform="matrix(0.9999999999999999, 0, 0, 1, 0, 0)"/><path d="M 687.2000122070312 491.79998779296875 L 373.8999938964844 491.79998779296875 L 376.20001220703125 495 L 683.2000122070312 495 Z" class="st21" style="fill: rgb(251, 171, 46);" transform="matrix(0.9999999999999999, 0, 0, 1, 0, 0)"/><path d="M 581.9000244140625 519 L 575 512.2000122070312 L 385.8999938964844 512.2000122070312 L 387.70001220703125 515.5999755859375 L 573.4000244140625 515.5999755859375 L 578.4000244140625 520.5999755859375 Z" class="st19" style="fill: rgb(248, 228, 49);" transform="matrix(0.9999999999999999, 0, 0, 1, 0, 0)"/><path d="M 400.3999938964844 534 L 412.8999938964844 555.5 L 794.4000244140625 474.29998779296875 L 794.7000122070312 475.79998779296875 L 411.8999938964844 559 L 397.8999938964844 533.5 Z" class="st19" style="fill: rgb(248, 228, 49);" transform="matrix(0.9999999999999999, 0, 0, 1, 0, 0)"/><path d="M 493 531.7000122070312 L 490 535.7000122070312 L 490 539.2999877929688 L 493 538.7000122070312 Z" class="st18" style="fill: rgb(204, 137, 41);" transform="matrix(0.9999999999999999, 0, 0, 1, 0, 0)"/><path d="M 767.5 499.5 L 768.7999877929688 514 L 744.2999877929688 531.7000122070312 L 711 541.7000122070312 L 643.9000244140625 549.4000244140625 L 642.9000244140625 540.2999877929688 L 739.7000122070312 522.0999755859375 Z" class="st47" style="fill: rgb(157, 104, 36);" transform="matrix(0.9999999999999999, 0, 0, 1, 0, 0)"/><path d="M 433.29998779296875 594.5 L 431.20001220703125 590.4000244140625 L 429.70001220703125 575.4000244140625 L 430.6000061035156 575.0999755859375 L 433.29998779296875 583.4000244140625 L 435.29998779296875 587.2000122070312 Z" class="st48" style="fill: rgb(57, 38, 14);" transform="matrix(0.9999999999999999, 0, 0, 1, 0, 0)"/><path d="M 397.8999938964844 533.5 L 493 531.7000122070312 L 490 535.7000122070312 L 402.79998779296875 538.2000122070312 Z" class="st21" style="fill: rgb(251, 171, 46);" transform="matrix(0.9999999999999999, 0, 0, 1, 0, 0)"/><path d="M 441.5 577.5999755859375 L 450.6000061035156 579.4000244140625 L 450.6000061035156 591 L 433.29998779296875 594.5 L 432.70001220703125 583.9000244140625 Z" class="st44" style="fill: rgb(131, 88, 30);" transform="matrix(0.9999999999999999, 0, 0, 1, 0, 0)"/><path d="M 687.2000122070312 491.79998779296875 L 687.2000122070312 498.8999938964844 L 682.2000122070312 498.8999938964844 L 682.2000122070312 495 L 683.2000122070312 495 Z" class="st18" style="fill: rgb(204, 137, 41);" transform="matrix(0.9999999999999999, 0, 0, 1, 0, 0)"/><path d="M 373.8999938964844 491.79998779296875 L 377.79998779296875 493.3999938964844 L 389.29998779296875 512.2000122070312 L 385.8999938964844 512.2000122070312 Z" class="st19" style="fill: rgb(248, 228, 49);" transform="matrix(0.9999999999999999, 0, 0, 1, 0, 0)"/><path d="M 391.799988 495 H 504.499985 V 511.200001 H 391.799988 V 495 Z" class="st18" style="fill: rgb(204, 137, 41);" transform="matrix(0.9999999999999999, 0, 0, 1, 0, 0)"/><path class="st21" d="M430.6,575.1c-0.1,0,1.8,8.3,1.8,8.3s0,1.1,2.4,0.7s14.4-3,14.4-3s1.9-0.1,1.2-3.2c-0.7-3.1-1.3-7-1.3-7&#10;&#9;&#9;&#9;L430.6,575.1z" style="fill: rgb(251, 171, 46);" transform="matrix(0.9999999999999999, 0, 0, 1, 0, 0)"/><path d="M 468 588.7000122070312 L 464.3999938964844 584.2000122070312 L 464.3999938964844 567.5 L 465.29998779296875 567.2999877929688 L 468 576.4000244140625 L 470 580.5999755859375 Z" class="st48" style="fill: rgb(57, 38, 14);" transform="matrix(0.9999999999999999, 0, 0, 1, 0, 0)"/><path d="M 595.7999877929688 538 L 588.0999755859375 549 L 591.2999877929688 558 L 599.2000122070312 547.0999755859375 L 599.2000122070312 537.2999877929688 Z" class="st48" style="fill: rgb(57, 38, 14);" transform="matrix(0.9999999999999999, 0, 0, 1, 0, 0)"/><path d="M 476.20001220703125 570 L 485.29998779296875 572 L 484.5 585 L 468 588.7000122070312 L 467.3999938964844 577 Z" class="st44" style="fill: rgb(131, 88, 30);" transform="matrix(0.9999999999999999, 0, 0, 1, 0, 0)"/><path class="st21" d="M465.3,567.3c-0.1,0,1.8,9.1,1.8,9.1s0,1.3,2.4,0.8c2.4-0.5,14.4-3.3,14.4-3.3s1.9-0.1,1.2-3.5&#10;&#9;&#9;&#9;c-0.7-3.4-1.4-7.2-1.4-7.2L465.3,567.3z" style="fill: rgb(251, 171, 46);" transform="matrix(0.9999999999999999, 0, 0, 1, 0, 0)"/><path d="M 601.9000244140625 542.9000244140625 L 599.2000122070312 547.0999755859375 L 591.2999877929688 558 L 607.5 555.9000244140625 L 616 544.7999877929688 Z" class="st44" style="fill: rgb(131, 88, 30);" transform="matrix(0.9999999999999999, 0, 0, 1, 0, 0)"/><path class="st21" d="M616.2,533.5l0.6,8.3c0,0,0.5,3-1.5,3.4c-2,0.4-14.8,2.7-14.8,2.7s-2.4-0.3-2.4-3.6s0-6.8,0-6.8L616.2,533.5&#10;&#9;&#9;&#9;z" style="fill: rgb(251, 171, 46);" transform="matrix(0.9999999999999999, 0, 0, 1, 0, 0)"/><path d="M 640.5 527.7999877929688 L 632.9000244140625 538.7999877929688 L 636 547.7999877929688 L 643.9000244140625 536.9000244140625 L 643.9000244140625 527.0999755859375 Z" class="st48" style="fill: rgb(57, 38, 14);" transform="matrix(0.9999999999999999, 0, 0, 1, 0, 0)"/><path d="M 646.5999755859375 532.7000122070312 L 643.9000244140625 536.9000244140625 L 636 547.7999877929688 L 652.2000122070312 545.7000122070312 L 660.7000122070312 534.5999755859375 Z" class="st44" style="fill: rgb(131, 88, 30);" transform="matrix(0.9999999999999999, 0, 0, 1, 0, 0)"/><path class="st21" d="M660.9,523.3l0.6,8.3c0,0,0.5,3-1.5,3.4c-2,0.4-14.8,2.7-14.8,2.7s-2.4-0.3-2.4-3.6s0-6.8,0-6.8L660.9,523.3&#10;&#9;&#9;&#9;z" style="fill: rgb(251, 171, 46);" transform="matrix(0.9999999999999999, 0, 0, 1, 0, 0)"/><path d="M 702.7000122070312 514 L 681.5999755859375 533.5 L 685.4000244140625 541.7000122070312 L 706 523.0999755859375 L 706 513.2999877929688 Z" class="st48" style="fill: rgb(57, 38, 14);" transform="matrix(0.9999999999999999, 0, 0, 1, 0, 0)"/><path d="M 514.2000122070312 562.9000244140625 L 511.5 567 L 503.5 577.5999755859375 L 519.9000244140625 575.5 L 528.5 564.7999877929688 Z" class="st44" style="fill: rgb(131, 88, 30);" transform="matrix(0.9999999999999999, 0, 0, 1, 0, 0)"/><path d="M 708.7999877929688 518.9000244140625 L 706 523.0999755859375 L 685.4000244140625 541.7000122070312 L 701.5999755859375 539.5999755859375 L 722.9000244140625 520.7999877929688 Z" class="st44" style="fill: rgb(131, 88, 30);" transform="matrix(0.9999999999999999, 0, 0, 1, 0, 0)"/><path class="st21" d="M723,509.4l0.6,8.3c0,0,0.5,3-1.5,3.4c-2,0.4-14.8,2.7-14.8,2.7s-2.4-0.3-2.4-3.6s0-6.8,0-6.8L723,509.4z" style="fill: rgb(251, 171, 46);" transform="matrix(0.9999999999999999, 0, 0, 1, 0, 0)"/><path d="M 552.7000122070312 547.5 L 544.5999755859375 559 L 548.2000122070312 567.5 L 556.0999755859375 556.5999755859375 L 556.0999755859375 546.7000122070312 Z" class="st48" style="fill: rgb(57, 38, 14);" transform="matrix(0.9999999999999999, 0, 0, 1, 0, 0)"/><path d="M 558.7999877929688 552.4000244140625 L 556.0999755859375 556.5999755859375 L 548.2000122070312 567.5 L 564.4000244140625 565.2999877929688 L 572.9000244140625 554.2999877929688 Z" class="st44" style="fill: rgb(131, 88, 30);" transform="matrix(0.9999999999999999, 0, 0, 1, 0, 0)"/><path class="st21" d="M573,542.9l0.6,8.3c0,0,0.5,3-1.5,3.4c-2,0.4-14.8,2.7-14.8,2.7s-2.4-0.3-2.4-3.6s0-6.8,0-6.8L573,542.9z" style="fill: rgb(251, 171, 46);" transform="matrix(0.9999999999999999, 0, 0, 1, 0, 0)"/><path d="M 507.8999938964844 558 L 501 567.7999877929688 L 503.3999938964844 578 L 511.29998779296875 567.0999755859375 L 511.29998779296875 557.2999877929688 Z" class="st48" style="fill: rgb(57, 38, 14);" transform="matrix(0.9999999999999999, 0, 0, 1, 0, 0)"/><path d="M 780.2000122070312 506.8999938964844 L 786.5 510.8999938964844 L 748.7999877929688 537.2999877929688 L 724.7000122070312 537.2999877929688 L 744.2999877929688 531.7000122070312 L 768.7999877929688 514 Z" class="st18" style="fill: rgb(204, 137, 41);" transform="matrix(0.9999999999999999, 0, 0, 1, 0, 0)"/><path class="st21" d="M528.3,553.4l0.6,8.3c0,0,0.5,3-1.5,3.4c-2,0.4-14.8,2.7-14.8,2.7s-2.4-0.3-2.4-3.6s0-6.8,0-6.8L528.3,553.4&#10;&#9;&#9;&#9;z" style="fill: rgb(251, 171, 46);" transform="matrix(0.9999999999999999, 0, 0, 1, 0, 0)"/><path d="M 798.2999877929688 492.5 L 786.5 510.8999938964844 L 768.7999877929688 514 L 767.5 499.5 Z" class="st21" style="fill: rgb(251, 171, 46);" transform="matrix(0.9999999999999999, 0, 0, 1, 0, 0)"/><path d="M 768.7999877929688 514 L 767.5 499.5 L 739.7000122070312 522.0999755859375 L 744.7999877929688 531.4000244140625 Z" class="st49" style="fill: rgb(132, 84, 29);" transform="matrix(0.9999999999999999, 0, 0, 1, 0, 0)"/><g transform="matrix(0.9999999999999999, 0, 0, 1, 0, 0)">
			<g>
				<g>
					<path d="M 593.0999755859375 587.0999755859375 L 592.2999877929688 571.0999755859375 L 601.9000244140625 571.0999755859375 L 600.5 587.0999755859375 Z"/>
				</g>
				<g>
					<path d="M 605.5999755859375 587.4000244140625 L 607.7000122070312 571.5 L 617.0999755859375 573.2999877929688 L 612.7999877929688 588.7999877929688 Z"/>
				</g>
				<g>
					<path d="M 617.9000244140625 590 L 622.7000122070312 574.7999877929688 L 631.7000122070312 578.2000122070312 L 624.7000122070312 592.7000122070312 Z"/>
				</g>
				<g>
					<path d="M 629.4000244140625 594.9000244140625 L 637 580.7000122070312 L 645.0999755859375 585.7999877929688 L 635.5999755859375 598.7000122070312 Z"/>
				</g>
				<g>
					<path d="M 639.9000244140625 601.7000122070312 L 649.9000244140625 589.2999877929688 L 657 595.7999877929688 L 645.2999877929688 606.7000122070312 Z"/>
				</g>
				<g>
					<path d="M 648.9000244140625 610.4000244140625 L 661 600 L 666.7999877929688 607.7000122070312 L 653.4000244140625 616.2999877929688 Z"/>
				</g>
				<g>
					<path d="M 656.2999877929688 620.7000122070312 L 670 612.5999755859375 L 674.4000244140625 621.2999877929688 L 659.5999755859375 627.2999877929688 Z"/>
				</g>
				<g>
					<path d="M 661.7000122070312 632.0999755859375 L 676.5999755859375 626.7000122070312 L 679.2999877929688 636 L 663.7000122070312 639.2000122070312 Z"/>
				</g>
				<g>
					<path d="M 664.9000244140625 644.2999877929688 L 680.5999755859375 641.7999877929688 L 681.5999755859375 651.4000244140625 L 665.7000122070312 651.7000122070312 Z"/>
				</g>
				<g>
					<path d="M 665.9000244140625 656.9000244140625 L 681.7000122070312 657.2999877929688 L 681 667 L 665.2999877929688 664.2999877929688 Z"/>
				</g>
				<g>
					<path d="M 664.5999755859375 669.5 L 680.0999755859375 672.7999877929688 L 677.5999755859375 682.2000122070312 L 662.7000122070312 676.5999755859375 Z"/>
				</g>
				<g>
					<path d="M 661 681.5999755859375 L 675.7000122070312 687.7000122070312 L 671.5 696.5 L 657.7999877929688 688.2999877929688 Z"/>
				</g>
				<g>
					<path d="M 655.2999877929688 692.9000244140625 L 668.5999755859375 701.5999755859375 L 663 709.4000244140625 L 651 698.7999877929688 Z"/>
				</g>
				<g>
					<path d="M 647.7000122070312 702.9000244140625 L 659.2000122070312 713.9000244140625 L 652.2000122070312 720.5999755859375 L 642.4000244140625 708 Z"/>
				</g>
				<g>
					<path d="M 638.4000244140625 711.2999877929688 L 647.7000122070312 724.2999877929688 L 639.7000122070312 729.5999755859375 L 632.2999877929688 715.2999877929688 Z"/>
				</g>
				<g>
					<path d="M 627.7000122070312 717.9000244140625 L 634.5999755859375 732.4000244140625 L 625.7000122070312 736.0999755859375 L 621 720.7000122070312 Z"/>
				</g>
				<g>
					<path d="M 616.0999755859375 722.4000244140625 L 620.2000122070312 737.9000244140625 L 610.7999877929688 739.9000244140625 L 608.9000244140625 723.9000244140625 Z"/>
				</g>
				<g>
					<path d="M 603.7999877929688 724.7000122070312 L 605 740.7000122070312 L 595.4000244140625 740.9000244140625 L 596.5 724.9000244140625 Z"/>
				</g>
				<g>
					<path d="M 591.2999877929688 724.7000122070312 L 589.5999755859375 740.5999755859375 L 580.0999755859375 739.0999755859375 L 584.0999755859375 723.5 Z"/>
				</g>
				<g>
					<path d="M 579 722.4000244140625 L 574.5 737.7000122070312 L 565.4000244140625 734.5 L 572.0999755859375 719.9000244140625 Z"/>
				</g>
				<g>
					<path d="M 567.2999877929688 717.7999877929688 L 560.0999755859375 732.0999755859375 L 551.7999877929688 727.2000122070312 L 561 714.0999755859375 Z"/>
				</g>
				<g>
					<path d="M 556.7000122070312 711.2000122070312 L 547 723.9000244140625 L 539.7999877929688 717.5999755859375 L 551.2000122070312 706.2999877929688 Z"/>
				</g>
				<g>
					<path d="M 547.4000244140625 702.7000122070312 L 535.5999755859375 713.4000244140625 L 529.5999755859375 705.7999877929688 L 542.9000244140625 696.9000244140625 Z"/>
				</g>
				<g>
					<path d="M 539.9000244140625 692.5999755859375 L 526.2999877929688 701 L 521.7999877929688 692.4000244140625 L 536.4000244140625 686.0999755859375 Z"/>
				</g>
				<g>
					<path d="M 534.2000122070312 681.4000244140625 L 519.4000244140625 687.0999755859375 L 516.5 677.7999877929688 L 532 674.2999877929688 Z"/>
				</g>
				<g>
					<path d="M 530.7000122070312 669.2000122070312 L 515.0999755859375 672.0999755859375 L 513.9000244140625 662.5 L 529.7999877929688 661.9000244140625 Z"/>
				</g>
				<g>
					<path d="M 529.4000244140625 656.5999755859375 L 513.5999755859375 656.5999755859375 L 514.0999755859375 646.9000244140625 L 529.9000244140625 649.2000122070312 Z"/>
				</g>
				<g>
					<path d="M 530.5 644 L 514.9000244140625 641.0999755859375 L 517.2000122070312 631.5999755859375 L 532.2000122070312 636.7999877929688 Z"/>
				</g>
				<g>
					<path d="M 533.7000122070312 631.7999877929688 L 518.9000244140625 626 L 522.9000244140625 617.2000122070312 L 536.7000122070312 625.0999755859375 Z"/>
				</g>
				<g>
					<path d="M 539.2000122070312 620.4000244140625 L 525.7000122070312 612 L 531.0999755859375 604 L 543.2999877929688 614.4000244140625 Z"/>
				</g>
				<g>
					<path d="M 546.5 610.2000122070312 L 534.7999877929688 599.5 L 541.5999755859375 592.5999755859375 L 551.7000122070312 605 Z"/>
				</g>
				<g>
					<path d="M 555.5999755859375 601.5999755859375 L 546 588.7999877929688 L 554 583.4000244140625 L 561.7000122070312 597.4000244140625 Z"/>
				</g>
				<g>
					<path d="M 566.0999755859375 594.7000122070312 L 559 580.4000244140625 L 567.7999877929688 576.5 L 572.7999877929688 591.7999877929688 Z"/>
				</g>
				<g>
					<path d="M 577.7000122070312 589.9000244140625 L 573.2999877929688 574.5 L 582.5999755859375 572.2999877929688 L 584.7999877929688 588.2999877929688 Z"/>
				</g>
			</g>
			<path d="M 679.199974 655.700012 A 81.599998 83.400002 0 0 1 597.599976 739.100014 A 81.599998 83.400002 0 0 1 515.999977 655.700012 A 81.599998 83.400002 0 0 1 597.599976 572.300011 A 81.599998 83.400002 0 0 1 679.199974 655.700012 Z"/>
			<path d="M 670.399979 657.5 A 72.800003 72.800003 0 0 1 597.599976 730.300003 A 72.800003 72.800003 0 0 1 524.799973 657.5 A 72.800003 72.800003 0 0 1 597.599976 584.699997 A 72.800003 72.800003 0 0 1 670.399979 657.5 Z" class="st50" style="fill: rgb(25, 33, 35);"/>
			<path d="M 667.899979 657.5 A 70.300003 70.300003 0 0 1 597.599976 727.800003 A 70.300003 70.300003 0 0 1 527.299973 657.5 A 70.300003 70.300003 0 0 1 597.599976 587.199997 A 70.300003 70.300003 0 0 1 667.899979 657.5 Z" class="st51" style="fill: rgb(11, 16, 20);"/>
			<path d="M 645.899975 657.5 A 48.299999 48.299999 0 0 1 597.599976 705.799999 A 48.299999 48.299999 0 0 1 549.299976 657.5 A 48.299999 48.299999 0 0 1 597.599976 609.200001 A 48.299999 48.299999 0 0 1 645.899975 657.5 Z" class="st16" style="fill: rgb(255, 202, 45);"/>
			<path d="M 644.099976 657.5 A 46.5 46.5 0 0 1 597.599976 704 A 46.5 46.5 0 0 1 551.099976 657.5 A 46.5 46.5 0 0 1 597.599976 611 A 46.5 46.5 0 0 1 644.099976 657.5 Z" class="st21" style="fill: rgb(251, 171, 46);"/>
			<path d="M 638.599976 657.5 A 41 41 0 0 1 597.599976 698.5 A 41 41 0 0 1 556.599976 657.5 A 41 41 0 0 1 597.599976 616.5 A 41 41 0 0 1 638.599976 657.5 Z" class="st16" style="fill: rgb(255, 202, 45);"/>
			<path d="M 635.299976 657.5 A 37.700001 37.700001 0 0 1 597.599976 695.200001 A 37.700001 37.700001 0 0 1 559.899975 657.5 A 37.700001 37.700001 0 0 1 597.599976 619.799999 A 37.700001 37.700001 0 0 1 635.299976 657.5 Z" class="st45" style="fill: rgb(119, 74, 25);"/>
			<g>
				<path d="M 604.399976 627 A 6.8 4.9 0 0 1 597.599976 631.9 A 6.8 4.9 0 0 1 590.799975 627 A 6.8 4.9 0 0 1 597.599976 622.1 A 6.8 4.9 0 0 1 604.399976 627 Z" class="st35" style="fill: rgb(0, 0, 1);"/>
			</g>
			<g>
				
					<path d="M 628.000012 637.900024 A 6.8 4.9 0 0 1 621.200012 642.800025 A 6.8 4.9 0 0 1 614.400012 637.900024 A 6.8 4.9 0 0 1 621.200012 633.000024 A 6.8 4.9 0 0 1 628.000012 637.900024 Z" transform="matrix(0.6492 0.7606 -0.7606 0.6492 703.1729 -248.7221)" class="st35" style="fill: rgb(0, 0, 1);"/>
			</g>
			<g>
				
					<path d="M 635.099988 663 A 6.8 4.9 0 0 1 628.299988 667.9 A 6.8 4.9 0 0 1 621.499988 663 A 6.8 4.9 0 0 1 628.299988 658.1 A 6.8 4.9 0 0 1 635.099988 663 Z" transform="matrix(-0.1572 0.9876 -0.9876 -0.1572 1381.8322 146.7756)" class="st35" style="fill: rgb(0, 0, 1);"/>
			</g>
			<g>
				
					<path d="M 620.599988 684.700012 A 6.8 4.9 0 0 1 613.799988 689.600012 A 6.8 4.9 0 0 1 606.999988 684.700012 A 6.8 4.9 0 0 1 613.799988 679.800012 A 6.8 4.9 0 0 1 620.599988 684.700012 Z" transform="matrix(-0.8533 0.5215 -0.5215 -0.8533 1494.5542 948.8414)" class="st35" style="fill: rgb(0, 0, 1);"/>
			</g>
			<g>
				
					<path d="M 594.700025 687.700012 A 6.8 4.9 0 0 1 587.900024 692.600012 A 6.8 4.9 0 0 1 581.100024 687.700012 A 6.8 4.9 0 0 1 587.900024 682.800012 A 6.8 4.9 0 0 1 594.700025 687.700012 Z" transform="matrix(-0.9506 -0.3105 0.3105 -0.9506 933.2015 1523.9863)" class="st35" style="fill: rgb(0, 0, 1);"/>
			</g>
			<g>
				<path class="st35" d="M566.2,663.7c2.5-1,5.7,0.9,7.2,4.4c1.4,3.5,0.5,7.1-2,8.2c-2.5,1-5.7-0.9-7.2-4.4&#10;&#9;&#9;&#9;&#9;&#9;C562.8,668.4,563.7,664.7,566.2,663.7z" style="fill: rgb(0, 0, 1);"/>
			</g>
			<g>
				
					<path d="M 576.700025 644 A 6.8 4.9 0 0 1 569.900024 648.9 A 6.8 4.9 0 0 1 563.100024 644 A 6.8 4.9 0 0 1 569.900024 639.1 A 6.8 4.9 0 0 1 576.700025 644 Z" transform="matrix(0.4561 -0.8899 0.8899 0.4561 -263.1171 857.3909)" class="st35" style="fill: rgb(0, 0, 1);"/>
			</g>
			<path d="M 627.499975 657.5 A 29.9 29.9 0 0 1 597.599976 687.4 A 29.9 29.9 0 0 1 567.699976 657.5 A 29.9 29.9 0 0 1 597.599976 627.6 A 29.9 29.9 0 0 1 627.499975 657.5 Z" class="st21" style="fill: rgb(251, 171, 46);"/>
			<path d="M 622.599976 657.5 A 25 25 0 0 1 597.599976 682.5 A 25 25 0 0 1 572.599976 657.5 A 25 25 0 0 1 597.599976 632.5 A 25 25 0 0 1 622.599976 657.5 Z" class="st16" style="fill: rgb(255, 202, 45);"/>
		</g><g transform="matrix(0.9999999999999999, 0, 0, 1, 0, 0)">
			<g>
				<g>
					<path d="M 273.70001220703125 587.0999755859375 L 272.79998779296875 571.0999755859375 L 282.3999938964844 571.0999755859375 L 281 587.0999755859375 Z"/>
				</g>
				<g>
					<path d="M 286.20001220703125 587.4000244140625 L 288.20001220703125 571.5 L 297.6000061035156 573.2999877929688 L 293.3999938964844 588.7999877929688 Z"/>
				</g>
				<g>
					<path d="M 298.3999938964844 590 L 303.29998779296875 574.7999877929688 L 312.20001220703125 578.2000122070312 L 305.20001220703125 592.7000122070312 Z"/>
				</g>
				<g>
					<path d="M 309.8999938964844 594.9000244140625 L 317.5 580.7000122070312 L 325.70001220703125 585.7999877929688 L 316.20001220703125 598.7000122070312 Z"/>
				</g>
				<g>
					<path d="M 320.3999938964844 601.7000122070312 L 330.3999938964844 589.2999877929688 L 337.5 595.7999877929688 L 325.79998779296875 606.7000122070312 Z"/>
				</g>
				<g>
					<path d="M 329.5 610.4000244140625 L 341.5 600 L 347.3999938964844 607.7000122070312 L 333.8999938964844 616.2999877929688 Z"/>
				</g>
				<g>
					<path d="M 336.79998779296875 620.7000122070312 L 350.6000061035156 612.5999755859375 L 354.8999938964844 621.2999877929688 L 340.1000061035156 627.2999877929688 Z"/>
				</g>
				<g>
					<path d="M 342.20001220703125 632.0999755859375 L 357.20001220703125 626.7000122070312 L 359.8999938964844 636 L 344.29998779296875 639.2000122070312 Z"/>
				</g>
				<g>
					<path d="M 345.3999938964844 644.2999877929688 L 361.1000061035156 641.7999877929688 L 362.1000061035156 651.4000244140625 L 346.20001220703125 651.7000122070312 Z"/>
				</g>
				<g>
					<path d="M 346.3999938964844 656.9000244140625 L 362.29998779296875 657.2999877929688 L 361.5 667 L 345.79998779296875 664.2999877929688 Z"/>
				</g>
				<g>
					<path d="M 345.1000061035156 669.5 L 360.6000061035156 672.7999877929688 L 358.1000061035156 682.2000122070312 L 343.20001220703125 676.5999755859375 Z"/>
				</g>
				<g>
					<path d="M 341.5 681.5999755859375 L 356.20001220703125 687.7000122070312 L 352 696.5 L 338.3999938964844 688.2999877929688 Z"/>
				</g>
				<g>
					<path d="M 335.8999938964844 692.9000244140625 L 349.20001220703125 701.5999755859375 L 343.5 709.4000244140625 L 331.5 698.7999877929688 Z"/>
				</g>
				<g>
					<path d="M 328.20001220703125 702.9000244140625 L 339.70001220703125 713.9000244140625 L 332.79998779296875 720.5999755859375 L 322.8999938964844 708 Z"/>
				</g>
				<g>
					<path d="M 318.8999938964844 711.2999877929688 L 328.20001220703125 724.2999877929688 L 320.20001220703125 729.5999755859375 L 312.79998779296875 715.2999877929688 Z"/>
				</g>
				<g>
					<path d="M 308.29998779296875 717.9000244140625 L 315.1000061035156 732.4000244140625 L 306.20001220703125 736.0999755859375 L 301.5 720.7000122070312 Z"/>
				</g>
				<g>
					<path d="M 296.6000061035156 722.4000244140625 L 300.70001220703125 737.9000244140625 L 291.29998779296875 739.9000244140625 L 289.3999938964844 723.9000244140625 Z"/>
				</g>
				<g>
					<path d="M 284.29998779296875 724.7000122070312 L 285.5 740.7000122070312 L 275.8999938964844 740.9000244140625 L 277 724.9000244140625 Z"/>
				</g>
				<g>
					<path d="M 271.79998779296875 724.7000122070312 L 270.1000061035156 740.5999755859375 L 260.70001220703125 739.0999755859375 L 264.6000061035156 723.5 Z"/>
				</g>
				<g>
					<path d="M 259.5 722.4000244140625 L 255 737.7000122070312 L 246 734.5 L 252.60000610351562 719.9000244140625 Z"/>
				</g>
				<g>
					<path d="M 247.89999389648438 717.7999877929688 L 240.60000610351562 732.0999755859375 L 232.39999389648438 727.2000122070312 L 241.5 714.0999755859375 Z"/>
				</g>
				<g>
					<path d="M 237.1999969482422 711.2000122070312 L 227.60000610351562 723.9000244140625 L 220.3000030517578 717.5999755859375 L 231.6999969482422 706.2999877929688 Z"/>
				</g>
				<g>
					<path d="M 228 702.7000122070312 L 216.1999969482422 713.4000244140625 L 210.10000610351562 705.7999877929688 L 223.39999389648438 696.9000244140625 Z"/>
				</g>
				<g>
					<path d="M 220.39999389648438 692.5999755859375 L 206.8000030517578 701 L 202.3000030517578 692.4000244140625 L 216.89999389648438 686.0999755859375 Z"/>
				</g>
				<g>
					<path d="M 214.6999969482422 681.4000244140625 L 199.89999389648438 687.0999755859375 L 197 677.7999877929688 L 212.5 674.2999877929688 Z"/>
				</g>
				<g>
					<path d="M 211.1999969482422 669.2000122070312 L 195.60000610351562 672.0999755859375 L 194.39999389648438 662.5 L 210.3000030517578 661.9000244140625 Z"/>
				</g>
				<g>
					<path d="M 210 656.5999755859375 L 194.10000610351562 656.5999755859375 L 194.60000610351562 646.9000244140625 L 210.39999389648438 649.2000122070312 Z"/>
				</g>
				<g>
					<path d="M 211 644 L 195.39999389648438 641.0999755859375 L 197.6999969482422 631.5999755859375 L 212.6999969482422 636.7999877929688 Z"/>
				</g>
				<g>
					<path d="M 214.3000030517578 631.7999877929688 L 199.5 626 L 203.39999389648438 617.2000122070312 L 217.3000030517578 625.0999755859375 Z"/>
				</g>
				<g>
					<path d="M 219.6999969482422 620.4000244140625 L 206.1999969482422 612 L 211.6999969482422 604 L 223.89999389648438 614.4000244140625 Z"/>
				</g>
				<g>
					<path d="M 227.10000610351562 610.2000122070312 L 215.3000030517578 599.5 L 222.10000610351562 592.5999755859375 L 232.3000030517578 605 Z"/>
				</g>
				<g>
					<path d="M 236.1999969482422 601.5999755859375 L 226.60000610351562 588.7999877929688 L 234.5 583.4000244140625 L 242.1999969482422 597.4000244140625 Z"/>
				</g>
				<g>
					<path d="M 246.6999969482422 594.7000122070312 L 239.5 580.4000244140625 L 248.3000030517578 576.5 L 253.39999389648438 591.7999877929688 Z"/>
				</g>
				<g>
					<path d="M 258.20001220703125 589.9000244140625 L 253.8000030517578 574.5 L 263.1000061035156 572.2999877929688 L 265.3999938964844 588.2999877929688 Z"/>
				</g>
			</g>
			<path d="M 359.700005 655.700012 A 81.599998 83.400002 0 0 1 278.100006 739.100014 A 81.599998 83.400002 0 0 1 196.500008 655.700012 A 81.599998 83.400002 0 0 1 278.100006 572.300011 A 81.599998 83.400002 0 0 1 359.700005 655.700012 Z"/>
			<path d="M 350.900009 657.5 A 72.800003 72.800003 0 0 1 278.100006 730.300003 A 72.800003 72.800003 0 0 1 205.300003 657.5 A 72.800003 72.800003 0 0 1 278.100006 584.699997 A 72.800003 72.800003 0 0 1 350.900009 657.5 Z" class="st50" style="fill: rgb(25, 33, 35);"/>
			<path d="M 348.400009 657.5 A 70.300003 70.300003 0 0 1 278.100006 727.800003 A 70.300003 70.300003 0 0 1 207.800003 657.5 A 70.300003 70.300003 0 0 1 278.100006 587.199997 A 70.300003 70.300003 0 0 1 348.400009 657.5 Z" class="st51" style="fill: rgb(11, 16, 20);"/>
			<path d="M 326.400005 657.5 A 48.299999 48.299999 0 0 1 278.100006 705.799999 A 48.299999 48.299999 0 0 1 229.800007 657.5 A 48.299999 48.299999 0 0 1 278.100006 609.200001 A 48.299999 48.299999 0 0 1 326.400005 657.5 Z" class="st16" style="fill: rgb(255, 202, 45);"/>
			<path d="M 324.600006 657.5 A 46.5 46.5 0 0 1 278.100006 704 A 46.5 46.5 0 0 1 231.600006 657.5 A 46.5 46.5 0 0 1 278.100006 611 A 46.5 46.5 0 0 1 324.600006 657.5 Z" class="st21" style="fill: rgb(251, 171, 46);"/>
			<path d="M 319.100006 657.5 A 41 41 0 0 1 278.100006 698.5 A 41 41 0 0 1 237.100006 657.5 A 41 41 0 0 1 278.100006 616.5 A 41 41 0 0 1 319.100006 657.5 Z" class="st16" style="fill: rgb(255, 202, 45);"/>
			<path d="M 315.800007 657.5 A 37.700001 37.700001 0 0 1 278.100006 695.200001 A 37.700001 37.700001 0 0 1 240.400005 657.5 A 37.700001 37.700001 0 0 1 278.100006 619.799999 A 37.700001 37.700001 0 0 1 315.800007 657.5 Z" class="st45" style="fill: rgb(119, 74, 25);"/>
			<g>
				<path d="M 284.900006 627 A 6.8 4.9 0 0 1 278.100006 631.9 A 6.8 4.9 0 0 1 271.300006 627 A 6.8 4.9 0 0 1 278.100006 622.1 A 6.8 4.9 0 0 1 284.900006 627 Z" class="st35" style="fill: rgb(0, 0, 1);"/>
			</g>
			<g>
				
					<path d="M 308.599988 637.900024 A 6.8 4.9 0 0 1 301.799988 642.800025 A 6.8 4.9 0 0 1 294.999988 637.900024 A 6.8 4.9 0 0 1 301.799988 633.000024 A 6.8 4.9 0 0 1 308.599988 637.900024 Z" transform="matrix(0.6492 0.7606 -0.7606 0.6492 591.098 -5.7231)" class="st35" style="fill: rgb(0, 0, 1);"/>
			</g>
			<g>
				
					<path d="M 315.599988 663 A 6.8 4.9 0 0 1 308.799988 667.9 A 6.8 4.9 0 0 1 301.999988 663 A 6.8 4.9 0 0 1 308.799988 658.1 A 6.8 4.9 0 0 1 315.599988 663 Z" transform="matrix(-0.1572 0.9876 -0.9876 -0.1572 1012.1454 462.2754)" class="st35" style="fill: rgb(0, 0, 1);"/>
			</g>
			<g>
				
					<path d="M 301.099988 684.700012 A 6.8 4.9 0 0 1 294.299988 689.600012 A 6.8 4.9 0 0 1 287.499988 684.700012 A 6.8 4.9 0 0 1 294.299988 679.800012 A 6.8 4.9 0 0 1 301.099988 684.700012 Z" transform="matrix(-0.8533 0.5215 -0.5215 -0.8533 902.4868 1115.4407)" class="st35" style="fill: rgb(0, 0, 1);"/>
			</g>
			<g>
				
					<path d="M 275.199994 687.700012 A 6.8 4.9 0 0 1 268.399994 692.600012 A 6.8 4.9 0 0 1 261.599994 687.700012 A 6.8 4.9 0 0 1 268.399994 682.800012 A 6.8 4.9 0 0 1 275.199994 687.700012 Z" transform="matrix(-0.9506 -0.3105 0.3105 -0.9506 310.0483 1424.7915)" class="st35" style="fill: rgb(0, 0, 1);"/>
			</g>
			<g>
				<path class="st35" d="M246.7,663.7c2.5-1,5.7,0.9,7.2,4.4c1.4,3.5,0.5,7.1-2,8.2c-2.5,1-5.7-0.9-7.2-4.4&#10;&#9;&#9;&#9;&#9;&#9;C243.3,668.4,244.2,664.7,246.7,663.7z" style="fill: rgb(0, 0, 1);"/>
			</g>
			<g>
				
					<path d="M 257.199994 644 A 6.8 4.9 0 0 1 250.399994 648.9 A 6.8 4.9 0 0 1 243.599994 644 A 6.8 4.9 0 0 1 250.399994 639.1 A 6.8 4.9 0 0 1 257.199994 644 Z" transform="matrix(0.4561 -0.8899 0.8899 0.4561 -436.8781 573.0784)" class="st35" style="fill: rgb(0, 0, 1);"/>
			</g>
			<path d="M 308.000006 657.5 A 29.9 29.9 0 0 1 278.100006 687.4 A 29.9 29.9 0 0 1 248.200006 657.5 A 29.9 29.9 0 0 1 278.100006 627.6 A 29.9 29.9 0 0 1 308.000006 657.5 Z" class="st21" style="fill: rgb(251, 171, 46);"/>
			<path d="M 303.100006 657.5 A 25 25 0 0 1 278.100006 682.5 A 25 25 0 0 1 253.100006 657.5 A 25 25 0 0 1 278.100006 632.5 A 25 25 0 0 1 303.100006 657.5 Z" class="st16" style="fill: rgb(255, 202, 45);"/>
		</g><path d="M 322.6000061035156 544.7999877929688 L 160 544.7999877929688 L 160 539.9000244140625 L 164.60000610351562 535.2999877929688 L 176.5 535.2999877929688 L 201.5 444.70001220703125 L 280.79998779296875 443.20001220703125 L 322.6000061035156 543.9000244140625 Z" class="st16" style="fill: rgb(255, 202, 45);" transform="matrix(0.9999999999999999, 0, 0, 1, 0, 0)"/><path d="M 280.79998779296875 443.20001220703125 L 201.5 444.70001220703125 L 182.39999389648438 513.7999877929688 L 259.6000061035156 504.20001220703125 L 268.1000061035156 512.2000122070312 L 304.79998779296875 501 Z" transform="matrix(0.9999999999999999, 0, 0, 1, 0, 0)"/><path d="M 291.8999938964844 494 L 283.79998779296875 474.29998779296875 L 272.79998779296875 474.29998779296875 L 272.79998779296875 502 L 276 504.5 L 289 501.1000061035156 L 289 497 Z" class="st52" style="fill: rgb(88, 89, 91);" transform="matrix(0.9999999999999999, 0, 0, 1, 0, 0)"/><path d="M 253.39999389648438 503.1000061035156 L 231 503.1000061035156 L 216 493.3999938964844 L 223.60000610351562 472.8999938964844 L 253.8000030517578 472.8999938964844 Z" class="st52" style="fill: rgb(88, 89, 91);" transform="matrix(0.9999999999999999, 0, 0, 1, 0, 0)"/><path d="M 206.1999969482422 497.70001220703125 L 197.5 502 L 209.8000030517578 461.79998779296875 L 213.39999389648438 465.70001220703125 Z" class="st52" style="fill: rgb(88, 89, 91);" transform="matrix(0.9999999999999999, 0, 0, 1, 0, 0)"/><path d="M 295.8999938964844 550.2999877929688 L 295.8999938964844 544.7999877929688 L 143.89999389648438 544.7999877929688 L 143.89999389648438 552.2000122070312 Z" class="st21" style="fill: rgb(251, 171, 46);" transform="matrix(0.9999999999999999, 0, 0, 1, 0, 0)"/><path d="M 208.60000610351562 551.4000244140625 L 180.3000030517578 594.7000122070312 L 161.89999389648438 594.7000122070312 L 161.89999389648438 587.2000122070312 L 166.39999389648438 587.2000122070312 L 166.39999389648438 576.5 L 172.89999389648438 551.9000244140625 Z" class="st18" style="fill: rgb(204, 137, 41);" transform="matrix(0.9999999999999999, 0, 0, 1, 0, 0)"/><g transform="matrix(0.9999999999999999, 0, 0, 1, 0, 0)">
			<path d="M298.8,548.9v-2h6.3c0.3-0.1,1.7-1.2,1.7-6.8v-32.8l-10.5-31.8l0-0.2c0-0.4-0.7-1.1-3.3-1.1h-42.4&#10;&#9;&#9;&#9;&#9;c-0.6,0.1-4.8,0.9-4.8,5.5v64.5h-2v-64.5c0-5.2,4.3-7.2,6.6-7.5l0.1,0h42.5c2.2,0,3.7,0.5,4.6,1.5c0.6,0.6,0.7,1.3,0.7,1.6&#10;&#9;&#9;&#9;&#9;l10.5,31.7v33.2c0,8-2.8,8.7-3.4,8.7L298.8,548.9z"/>
		</g><g transform="matrix(0.9999999999999999, 0, 0, 1, 0, 0)">
			<path d="M 297.8999938964844 543.7999877929688 L 297.8999938964844 540.9000244140625 L 238.89999389648438 540.9000244140625 L 238.89999389648438 544.7999877929688 Z"/>
			<path d="M237.9,545.8v-5.9h61v4.8L237.9,545.8z M239.9,541.9v1.8l57-1v-0.9H239.9z"/>
		</g><g transform="matrix(0.9999999999999999, 0, 0, 1, 0, 0)">
			<path d="M 244.800003 510.399994 H 307.800003 V 512.399994 H 244.800003 V 510.399994 Z"/>
		</g><g transform="matrix(0.9999999999999999, 0, 0, 1, 0, 0)">
			<path d="M 189.8000030517578 544.7999877929688 L 189.8000030517578 541.5999755859375 L 153.10000610351562 541.5999755859375 L 147.60000610351562 543.2000122070312 L 147.60000610351562 546.4000244140625 Z"/>
			<path d="M146.6,547.5v-5l6.5-1.8h37.7v5.1L146.6,547.5z M148.6,543.9v1.5l40.2-1.6v-1.2h-35.5L148.6,543.9z"/>
		</g><g transform="matrix(0.9999999999999999, 0, 0, 1, 0, 0)">
			<path d="M148.6,542.1h-2v-61c-0.2-0.7-0.9-3.9,0.6-6.1c0.8-1.2,2.1-1.9,3.9-2.1c5.5-0.5,31.5,0,32.6,0l1,0v68h-2v-66&#10;&#9;&#9;&#9;&#9;c-4.9-0.1-26.6-0.4-31.4,0c-1.1,0.1-1.9,0.5-2.4,1.2c-0.9,1.4-0.5,3.7-0.3,4.5l0,0.3V542.1z"/>
		</g><g transform="matrix(0.9999999999999999, 0, 0, 1, 0, 0)">
			<path d="M 147.600006 510.399994 H 183.600006 V 512.399994 H 147.600006 V 510.399994 Z"/>
		</g><g transform="matrix(0.9999999999999999, 0, 0, 1, 0, 0)">
			<path d="M244,481.5l-6.6-8.6c-3.4-0.2-25.1-1.8-35.6-1.5c-11,0.3-17.6,4.5-17.7,4.5l-1.1-1.7c0.3-0.2,7-4.5,18.7-4.8&#10;&#9;&#9;&#9;&#9;c11.4-0.3,36,1.5,36.3,1.5l0.4,0l7.2,9.4L244,481.5z"/>
		</g><g transform="matrix(0.9999999999999999, 0, 0, 1, 0, 0)">
			<path d="M182.2,508.8c-0.9-0.6-3.1-2-3.1-3.5c0-0.4,0.1-1,0.9-1.5c1.7-1,41.8-1.2,65.5-1.3l0,2c-23.9,0.1-59.9,0.4-64.3,1&#10;&#9;&#9;&#9;&#9;c0.3,0.4,1.2,1.1,2,1.6L182.2,508.8z"/>
		</g><g transform="matrix(0.9999999999999999, 0, 0, 1, 0, 0)">
			<path d="M184.9,523.7l-1.3-1.5c0.2-0.2,2.5-2.1,10.5-2.3c7.8-0.2,51.1,1,51.5,1l-0.1,2c-0.4,0-43.7-1.2-51.5-1&#10;&#9;&#9;&#9;&#9;C186.9,522.1,184.9,523.7,184.9,523.7z"/>
		</g><g transform="matrix(0.9999999999999999, 0, 0, 1, 0, 0)">
			<path d="M 160.10000610351562 540.9000244140625 L 158.10000610351562 540.9000244140625 L 158.10000610351562 517.7000122070312 L 147.5 496.20001220703125 L 149.3000030517578 495.29998779296875 L 160.10000610351562 517.2000122070312 Z"/>
		</g><g transform="matrix(0.9999999999999999, 0, 0, 1, 0, 0)">
			<path d="M146.5,520.5c-0.1-0.1-10.8-10.3-12.5-11.8c-2-1.8-2-5.1-2-5.2v-1h15.5v2h-13.4c0.1,0.8,0.5,2,1.2,2.7&#10;&#9;&#9;&#9;&#9;c1.7,1.5,12.1,11.5,12.5,11.9L146.5,520.5z"/>
		</g><g transform="matrix(0.9999999999999999, 0, 0, 1, 0, 0)">
			<path d="M134.4,513.8h-6l1.2-9.2l9.3-2.2C138.9,502.4,140.1,511.1,134.4,513.8z"/>
			<path d="M134.6,514.8h-7.4l1.4-11l11.1-2.6l0.1,1.1c0.1,0.4,1.2,9.4-5.1,12.4L134.6,514.8z M129.6,512.8h4.6&#10;&#9;&#9;&#9;&#9;c3.6-1.9,3.9-6.9,3.8-9.1l-7.5,1.7L129.6,512.8z"/>
		</g><g transform="matrix(0.9999999999999999, 0, 0, 1, 0, 0)">
			<path d="M175.4,534.8l-1.9-0.5c0,0,1.1-4.6,0-8.3c-1.1-3.9-5.7-13.9-5.7-14l-0.1-0.2l0-0.2c0-0.3-0.8-25.4-0.9-30&#10;&#9;&#9;&#9;&#9;c-0.2-5.5,3-6.2,3.1-6.2l0.3-0.1l12.9,4.6l-0.7,1.9l-12.3-4.4c-0.4,0.2-1.4,1.1-1.3,4.1c0.2,4.4,0.8,27.4,0.9,29.8&#10;&#9;&#9;&#9;&#9;c0.6,1.4,4.6,10.3,5.7,14.1C176.6,529.7,175.4,534.6,175.4,534.8z"/>
		</g><g transform="matrix(0.9999999999999999, 0, 0, 1, 0, 0)">
			<path d="M 171.899994 477.399994 H 173.899994 V 534.599995 H 171.899994 V 477.399994 Z"/>
		</g></g></svg>